<svg xmlns="http://www.w3.org/2000/svg" xmlns:xlink="http://www.w3.org/1999/xlink" version="1.1" id="Layer_1" x="0px" y="0px" viewBox="0 0 128 128" style="enable-background:new 0 0 128 128;" xml:space="preserve">
<style type="text/css">
  .st0{fill:#FFFFFF;}
  .st1{fill:#B8E4FF;}
  .st2{fill:#444B54;}
  .st3{fill:#FCCA3D;}
  .st4{fill:#FF6144;}
  .st5{fill:#3C9FDD;}
  .st6{fill:#D3D8DD;}
  .st7{fill:#FF5576;}
  .st8{opacity:0.5;}
  .st9{fill:#1FD4AF;}
  .st10{fill:#ADF9D2;}
  .st11{fill:#1AB792;}
  .st12{fill:none;stroke:#444B54;stroke-width:6;stroke-linecap:round;stroke-linejoin:round;stroke-miterlimit:10;}
</style>
<g>
  <g>
    <rect x="35" y="58" class="st0" width="58" height="12"></rect>
  </g>
  <g>
    <path class="st1" d="M28,14c-3.9,0-7,3.1-7,7v13v60v12c0,3.9,3.1,7,7,7h0c3.9,0,7-3.1,7-7V21C35,17.1,31.9,14,28,14L28,14z"></path>
  </g>
  <g>
    <path class="st1" d="M14,94L14,94c-3.9,0-7-3.1-7-7V41c0-3.9,3.1-7,7-7h0c3.9,0,7,3.1,7,7v46C21,90.9,17.9,94,14,94z"></path>
  </g>
  <g>
    <path class="st0" d="M14,34L14,34c-3.9,0-7,3.1-7,7v12h14V41C21,37.1,17.9,34,14,34z"></path>
  </g>
  <g>
    <path class="st0" d="M21,21v12h14V21c0-3.9-3.1-7-7-7h0C24.1,14,21,17.1,21,21z"></path>
  </g>
  <g>
    <path class="st1" d="M114,34c-3.9,0-7,3.1-7,7v-7V21c0-3.9-3.1-7-7-7s-7,3.1-7,7v85c0,3.9,3.1,7,7,7s7-3.1,7-7V94v-7    c0,3.9,3.1,7,7,7s7-3.1,7-7V41C121,37.1,117.9,34,114,34z"></path>
  </g>
  <g>
    <path class="st0" d="M114,34L114,34c3.9,0,7,3.1,7,7v12h-14V41C107,37.1,110.1,34,114,34z"></path>
  </g>
  <g>
    <path class="st0" d="M107,21v12H93V21c0-3.9,3.1-7,7-7h0C103.9,14,107,17.1,107,21z"></path>
  </g>
  <path class="st2" d="M124,56V41c0-5.5-4.5-10-10-10c-1.4,0-2.8,0.3-4,0.8V21c0-5.5-4.5-10-10-10s-10,4.5-10,10v34H38V21   c0-5.5-4.5-10-10-10s-10,4.5-10,10v10.8c-1.2-0.5-2.6-0.8-4-0.8C8.5,31,4,35.5,4,41v15c-1.7,0-3,1.3-3,3v10c0,1.7,1.3,3,3,3v15   c0,5.5,4.5,10,10,10c1.4,0,2.8-0.3,4-0.8v9.8c0,5.5,4.5,10,10,10s10-4.5,10-10V73h52v33c0,5.5,4.5,10,10,10s10-4.5,10-10v-9.8   c1.2,0.5,2.6,0.8,4,0.8c5.5,0,10-4.5,10-10V72c1.7,0,3-1.3,3-3V59C127,57.3,125.7,56,124,56z M32,58v12v14v1c0,2.2-1.8,4-4,4   c-2.2,0-4-1.8-4-4V63.3c0-1.7-1.3-3-3-3s-3,1.3-3,3V64v1c0,2.2-1.8,4-4,4c-2.2,0-4-1.8-4-4V41c0-2.2,1.8-4,4-4s4,1.8,4,4v9   c0,1.7,1.3,3,3,3s3-1.3,3-3V21c0-2.2,1.8-4,4-4s4,1.8,4,4V58z M90,67H45v-6h45V67z M96,70V58V21c0-2.2,1.8-4,4-4s4,1.8,4,4v29   c0,1.7,1.3,3,3,3s3-1.3,3-3v-9c0-2.2,1.8-4,4-4s4,1.8,4,4v24c0,2.2-1.8,4-4,4c-2.2,0-4-1.8-4-4v-1c0-1.7-1.3-3-3-3s-3,1.3-3,3v21   c0,2.2-1.8,4-4,4c-2.2,0-4-1.8-4-4v-1V70z"></path>
</g>
</svg>
